<?xml version="1.0" encoding="utf-8"?>
<!-- Generator: Adobe Illustrator 16.0.1, SVG Export Plug-In . SVG Version: 6.00 Build 0)  -->
<!DOCTYPE svg PUBLIC "-//W3C//DTD SVG 1.1//EN" "http://www.w3.org/Graphics/SVG/1.1/DTD/svg11.dtd">
<svg version="1.1" id="Layer_1" xmlns="http://www.w3.org/2000/svg" xmlns:xlink="http://www.w3.org/1999/xlink" x="0px" y="0px"
	 width="158.961px" height="179.766px" viewBox="0 0 158.961 179.766" enable-background="new 0 0 158.961 179.766"
	 xml:space="preserve">
<g>
	
		<linearGradient id="SVGID_1_" gradientUnits="userSpaceOnUse" x1="-322.2632" y1="692.8596" x2="-209.6519" y2="692.8596" gradientTransform="matrix(1 0 0 1 388 -617.2344)">
		<stop  offset="0" style="stop-color:#390012"/>
		<stop  offset="0.5173" style="stop-color:#6E1C28"/>
		<stop  offset="0.9996" style="stop-color:#390012"/>
	</linearGradient>
	<path fill="url(#SVGID_1_)" d="M65.737,110.323c0,0,62.637-21.707,88.258-69.396c0,0,5.601,11.528,4.907,26.411
		c0,0-0.645,11.271-2.075,12.809c-0.688,0.736-2.615-6.695-3.623-5.697C142.081,85.453,111.625,110.601,65.737,110.323z"/>
	
		<linearGradient id="SVGID_2_" gradientUnits="userSpaceOnUse" x1="-391.7979" y1="717.7805" x2="-310.1766" y2="741.8926" gradientTransform="matrix(1 0 0 1 388 -617.2344)">
		<stop  offset="0" style="stop-color:#390012"/>
		<stop  offset="0.5173" style="stop-color:#6E1C28"/>
		<stop  offset="0.9996" style="stop-color:#390012"/>
	</linearGradient>
	<path fill="url(#SVGID_2_)" d="M75.347,85.769c-24.556-6.764-43.062-5.694-43.062-5.694l10.32,19.928
		c-54.094,19.93-41.281,40.215-41.281,40.215c5.641-13,30.559-25.324,45.496-31.729c2.097,4.361,3.915,7.588,3.915,7.588
		s1.157-2.066,2.232-3.059c-0.827-2.066-1.405-3.225-2.479-6.117c3.834-1.547,7.775-2.98,7.775-2.98
		C79.973,95.019,75.347,85.769,75.347,85.769z M47.098,98.302l-4.137-8.977l21.354,2.848C64.314,92.173,51.396,96.402,47.098,98.302
		z"/>
	<g>
		<g>
			
				<linearGradient id="SVGID_3_" gradientUnits="userSpaceOnUse" x1="-301.751" y1="717.5627" x2="-285.1523" y2="717.5627" gradientTransform="matrix(1 0 0 1 388 -617.2344)">
				<stop  offset="0" style="stop-color:#4F5153"/>
				<stop  offset="1" style="stop-color:#3E3E3F"/>
			</linearGradient>
			<path fill="url(#SVGID_3_)" d="M86.249,101.289c0.133,0.518,0.265,1.041,0.396,1.572c0.473,1.922,0.807,3.797,1.022,5.617
				l14.668-3.562c0.676-4.551,0.646-8.791,0.133-12.738L86.249,101.289z"/>
		</g>
	</g>
	<g>
		<g>
			
				<linearGradient id="SVGID_4_" gradientUnits="userSpaceOnUse" x1="-279.2695" y1="704.8381" x2="-259.1846" y2="704.8381" gradientTransform="matrix(1 0 0 1 388 -617.2344)">
				<stop  offset="0" style="stop-color:#4F5153"/>
				<stop  offset="1" style="stop-color:#3E3E3F"/>
			</linearGradient>
			<path fill="url(#SVGID_4_)" d="M110.229,87.087c0.336,5.789-0.336,11.051-1.498,15.646l15.681-7.129
				c1.36-3.172,1.825-5.211,1.825-5.211c2.06-6.381,2.746-12.36,2.546-17.918L110.229,87.087z"/>
		</g>
	</g>
	
		<linearGradient id="SVGID_5_" gradientUnits="userSpaceOnUse" x1="-336.665" y1="683.1038" x2="-271.289" y2="724.4796" gradientTransform="matrix(1 0 0 1 388 -617.2344)">
		<stop  offset="0" style="stop-color:#390012"/>
		<stop  offset="0.5173" style="stop-color:#6E1C28"/>
		<stop  offset="0.9996" style="stop-color:#390012"/>
	</linearGradient>
	<path fill="url(#SVGID_5_)" d="M79.073,28.907c0,0-1.747,14.482,10.835,34.275c6.166,9.695,16.102,24.104,11.959,44.383
		c0,0-2.107,18.453-21.125,31.434c0,0,10.986-15.498,5.898-36.139c-2.062-8.361-3.988-14.438-16.768-30.104
		c-2.469-3.028-7.295-8.141-8.486-13.121c-1.02-4.254,2.387-10.173,6.842-16.104L79.073,28.907z"/>
	
		<linearGradient id="SVGID_6_" gradientUnits="userSpaceOnUse" x1="-311.9521" y1="663.3831" x2="-248.8876" y2="696.9197" gradientTransform="matrix(1 0 0 1 388 -617.2344)">
		<stop  offset="0" style="stop-color:#390012"/>
		<stop  offset="0.5173" style="stop-color:#6E1C28"/>
		<stop  offset="0.9996" style="stop-color:#390012"/>
	</linearGradient>
	<path fill="url(#SVGID_6_)" d="M110.579,0c0,0-3.736,15.911,7.828,39.503c5.668,11.558,14.946,28.826,7.829,50.891
		c0,0-4.627,20.283-27.401,32.385c0,0,14.146-15.895,11.033-39.502c-1.265-9.565-2.658-16.567-14.949-35.588
		c-2.373-3.676-7.114-9.965-7.828-15.659c-0.606-4.859,3.914-11.03,9.609-17.081L110.579,0z"/>
	<g>
		<g>
			<path fill="#B08C5A" d="M121.59,33.195c-0.885,1.946-1.096,3.105-1.096,5.451l0.168,1.711l0.568-2.153
				c0.18-0.627,0.541-1.627,0.738-2.104c0.723-1.729,1.53-2.796,1.934-3.244c1.027-1.095,2.225-1.314,2.961-1.314
				c0.533,0.111,0.881,0.232,1.043,0.369c0.322,0.18,0.625,0.549,0.902,1.104c0.062,0.151,0.133,0.136,0.133,0.136
				c0.338-0.066,0.771-0.548,1.309-1.439c0.535-1.007,0.807-1.847,0.807-2.517c0-0.244-0.018-0.583-0.217-1.074
				c-0.234-0.578-0.424-0.873-0.781-1.164c-0.379-0.357-1.094-0.61-1.586-0.61c-0.736,0-1.604,0.198-2.5,0.913
				c-0.783,0.646-1.592,1.465-2.318,2.41C123.654,29.666,122.346,31.531,121.59,33.195z"/>
		</g>
		<g>
			<path fill="#B08C5A" d="M126.588,19.624l0.148,0.883l0.055,0.81c0,0.979-0.217,1.704-0.646,2.187
				c-0.431,0.479-0.974,0.72-1.629,0.72c-0.605,0-1.162-0.177-1.668-0.531c-0.453-0.353-0.789-0.892-1.011-1.614l-0.176-0.888
				l-0.052-0.857c0-0.606,0.103-1.228,0.304-1.857c0.203-0.632,0.59-1.294,1.162-1.982c0,1.501,0.059,2.534,0.178,3.108
				c0.199,1.197,0.58,1.795,1.136,1.795c0.27,0,0.571-0.115,0.909-0.354c0.168-0.117,0.363-0.294,0.58-0.531
				C126.1,20.272,126.336,19.978,126.588,19.624z"/>
		</g>
		<path fill="#B08C5A" d="M134.04,103.171l0.166,1.217l0.033,1.111c-0.044,1.316-0.378,2.297-0.998,2.945
			c-0.576,0.65-1.324,0.961-2.248,0.93c-0.854-0.027-1.604-0.32-2.257-0.873c-0.676-0.506-1.112-1.236-1.313-2.191l-0.172-1.045
			l-0.033-1.072c0.035-1.086,0.388-2.229,1.052-3.428c0.221-0.41,0.729-1.086,1.521-2.027c-0.074,2.215-0.088,3.635-0.039,4.258
			c0.129,1.646,0.554,2.479,1.269,2.502c0.321,0.012,0.717-0.154,1.178-0.498C132.657,104.656,133.271,104.048,134.04,103.171z"/>
		<g>
			<path fill="#B08C5A" d="M43.146,72.601l1.791-1.452c0.565-0.465,1.086-0.938,1.549-1.407c0.456-0.478,0.855-0.957,1.132-1.432
				c0.283-0.452,0.446-0.95,0.42-1.163c-0.007-0.046-0.015-0.069-0.021-0.03c-0.004,0.021-0.002,0.062,0.013,0.119
				c0.031,0.097,0.011,0.104,0.158,0.33c-0.139-0.172,0.076,0.122,0.062,0.093l-0.085-0.062c-0.082-0.06-0.203-0.138-0.328-0.216
				c-0.524-0.312-1.141-0.669-1.758-1.006c-1.238-0.688-2.513-1.432-3.74-2.211l2.143-1.085c-0.022,0.03-0.065,0.153-0.1,0.241
				c-0.035,0.101-0.069,0.199-0.1,0.306c-0.062,0.207-0.115,0.42-0.172,0.636c-0.1,0.432-0.179,0.875-0.224,1.33
				c-0.027,0.229-0.035,0.457-0.04,0.69c-0.006,0.232,0.009,0.469,0.022,0.712c0.018,0.241,0.052,0.487,0.111,0.732
				c0.029,0.268,0.134,0.494,0.195,0.774c-0.235-0.131-0.487-0.273-0.7-0.456c-0.222-0.18-0.416-0.387-0.607-0.607
				c-0.192-0.219-0.354-0.464-0.504-0.715c-0.153-0.253-0.276-0.519-0.391-0.791c-0.219-0.546-0.378-1.12-0.466-1.703
				c-0.049-0.292-0.078-0.586-0.09-0.885c-0.008-0.148-0.011-0.3-0.01-0.453c0.002-0.163,0.001-0.291,0.03-0.507l0.221-1.618
				l1.922,0.533c1.481,0.411,2.895,0.913,4.293,1.57c0.698,0.341,1.391,0.677,2.115,1.162c0.186,0.122,0.372,0.251,0.584,0.417
				c0.102,0.076,0.218,0.173,0.343,0.291c0.12,0.095,0.469,0.519,0.436,0.5c0.434,0.651,0.467,1.062,0.52,1.49
				c0.028,0.407-0.008,0.755-0.077,1.073c-0.297,1.252-0.945,2.059-1.622,2.721c-0.695,0.646-1.457,1.104-2.238,1.438
				c-0.782,0.33-1.583,0.535-2.382,0.645C44.752,72.708,43.938,72.715,43.146,72.601z"/>
		</g>
		<path fill="#B08C5A" d="M55.293,19.226c-0.444-1.058-1.357-3.264-1.554-3.981c-0.198-0.726-0.296-1.312-0.296-1.771
			c0-0.81,0.328-1.215,0.984-1.215c0.918,0,2.471,0.842,4.658,2.527l2.952,2.521l0.95-1.047l1.182-1.216
			c1.75-1.509,3.084-2.263,4.002-2.263c0.722,0,1.291,0.371,1.706,1.113c0.415,0.744,0.624,1.99,0.624,3.738
			c0,0.94-0.066,2.069-0.197,3.379c-0.547-1.004-0.751-1.212-1.199-1.914c-0.448-0.7-0.858-1.256-1.229-1.674
			c-0.744-0.83-1.31-0.889-1.833-0.889c-0.723,0-1.349,0.344-1.743,1.74c-0.459,1.707-0.983,3.677-0.983,7.196l0.034,1.901
			l0.065,1.904l-0.788-3.547c-0.765-2.816-1.135-3.731-1.835-5.261c-1.071-2.341-2.131-3.512-3.182-3.512
			c-0.459,0-0.886,0.165-1.278,0.492C56.333,17.457,55.738,17.982,55.293,19.226z"/>
		<path fill="#B08C5A" d="M151.286,31.161c0,0-11.72,14.585-15.957,19.706c-0.32,0.387-2.601,0.914-2.601,0.914
			s9.209-12.021,15.845-19.786C148.866,31.653,151.286,31.161,151.286,31.161z"/>
		<path fill="#B08C5A" d="M87.536,10.661c0,0-11.72,14.585-15.958,19.706c-0.32,0.387-2.6,0.914-2.6,0.914
			s9.209-12.021,15.845-19.786C85.116,11.153,87.536,10.661,87.536,10.661z"/>
	</g>
</g>
<g enable-background="new    ">
	<path fill="#5D1B29" d="M14.153,154.429l2.26-0.197c0.107,0.906,0.356,1.648,0.747,2.229c0.391,0.58,0.998,1.05,1.822,1.408
		c0.823,0.356,1.75,0.537,2.779,0.537c0.914,0,1.721-0.137,2.42-0.408c0.7-0.271,1.221-0.645,1.562-1.117
		c0.341-0.474,0.513-0.99,0.513-1.55c0-0.568-0.165-1.064-0.494-1.488c-0.33-0.424-0.873-0.78-1.63-1.068
		c-0.486-0.188-1.561-0.482-3.224-0.883c-1.663-0.399-2.828-0.775-3.495-1.131c-0.864-0.452-1.509-1.015-1.933-1.686
		c-0.424-0.672-0.636-1.423-0.636-2.255c0-0.913,0.26-1.768,0.778-2.562s1.276-1.397,2.272-1.81
		c0.996-0.411,2.104-0.617,3.322-0.617c1.342,0,2.525,0.216,3.551,0.647c1.025,0.433,1.813,1.068,2.365,1.908
		c0.552,0.84,0.848,1.79,0.889,2.854l-2.297,0.173c-0.124-1.146-0.542-2.009-1.253-2.595c-0.712-0.584-1.764-0.877-3.156-0.877
		c-1.449,0-2.505,0.267-3.168,0.798c-0.663,0.53-0.994,1.172-0.994,1.921c0,0.649,0.235,1.186,0.704,1.604
		c0.461,0.42,1.665,0.851,3.612,1.29c1.947,0.44,3.283,0.826,4.008,1.155c1.054,0.484,1.832,1.101,2.334,1.846
		c0.502,0.746,0.753,1.604,0.753,2.575c0,0.964-0.276,1.871-0.827,2.724c-0.552,0.853-1.344,1.516-2.377,1.988
		c-1.034,0.474-2.197,0.71-3.489,0.71c-1.638,0-3.011-0.238-4.119-0.716c-1.108-0.479-1.976-1.196-2.606-2.155
		S14.186,155.64,14.153,154.429z"/>
	<path fill="#5D1B29" d="M41.839,160.246l6.953-18.105h2.582l7.41,18.105h-2.729l-2.112-5.483h-7.571l-1.988,5.483H41.839z
		 M47.063,152.812h6.138l-1.89-5.015c-0.576-1.523-1.004-2.774-1.284-3.754c-0.231,1.16-0.556,2.312-0.976,3.458L47.063,152.812z"/>
	<path fill="#5D1B29" d="M72.589,160.246v-18.105h2.396v15.969H83.9v2.138L72.589,160.246L72.589,160.246z"/>
	<path fill="#5D1B29" d="M96.754,160.246l6.953-18.105h2.582l7.41,18.105h-2.729l-2.113-5.483h-7.57l-1.988,5.483H96.754z
		 M101.979,152.812h6.14l-1.892-5.015c-0.576-1.523-1.004-2.774-1.283-3.754c-0.229,1.16-0.557,2.312-0.977,3.458L101.979,152.812z"
		/>
	<path fill="#5D1B29" d="M127.529,160.246v-18.105h3.605l4.285,12.819c0.395,1.193,0.684,2.088,0.865,2.681
		c0.205-0.659,0.527-1.626,0.963-2.901l4.334-12.599h3.225v18.105h-2.311v-15.154l-5.26,15.154h-2.162l-5.236-15.413v15.413H127.529
		L127.529,160.246z"/>
</g>
<g>
	<path fill="#B08C5A" d="M36.423,122.362c-0.884,1.945-1.095,3.105-1.095,5.451l0.167,1.711l0.569-2.154
		c0.18-0.627,0.541-1.627,0.739-2.104c0.723-1.729,1.531-2.797,1.934-3.244c1.027-1.096,2.224-1.314,2.96-1.314
		c0.533,0.111,0.881,0.232,1.042,0.369c0.323,0.18,0.626,0.549,0.903,1.104c0.062,0.15,0.134,0.135,0.134,0.135
		c0.337-0.066,0.771-0.547,1.308-1.439c0.535-1.006,0.806-1.844,0.806-2.516c0-0.244-0.017-0.584-0.217-1.074
		c-0.234-0.578-0.423-0.873-0.781-1.164c-0.379-0.357-1.093-0.609-1.586-0.609c-0.736,0-1.605,0.197-2.5,0.912
		c-0.783,0.648-1.592,1.465-2.318,2.41C38.487,118.833,37.179,120.698,36.423,122.362z"/>
</g>
<g enable-background="new    ">
	<path fill="#B08C5A" d="M14.474,170.97c0.443-0.09,1.077-0.142,1.68-0.142c0.936,0,1.54,0.171,1.963,0.555
		c0.342,0.302,0.534,0.764,0.534,1.288c0,0.896-0.563,1.489-1.279,1.73v0.029c0.523,0.183,0.836,0.665,0.997,1.371
		c0.221,0.945,0.383,1.6,0.523,1.861h-0.905c-0.111-0.191-0.262-0.775-0.453-1.621c-0.202-0.936-0.563-1.288-1.358-1.319H15.35v2.94
		h-0.875L14.474,170.97L14.474,170.97z M15.349,174.06h0.896c0.936,0,1.53-0.514,1.53-1.287c0-0.875-0.633-1.259-1.561-1.27
		c-0.422,0-0.724,0.04-0.865,0.081V174.06z"/>
	<path fill="#B08C5A" d="M21.507,175.389c0.021,1.197,0.786,1.689,1.671,1.689c0.635,0,1.017-0.109,1.35-0.25l0.152,0.633
		c-0.312,0.141-0.845,0.302-1.62,0.302c-1.5,0-2.396-0.985-2.396-2.454s0.866-2.628,2.284-2.628c1.591,0,2.013,1.398,2.013,2.296
		c0,0.181-0.02,0.321-0.029,0.412H21.507z M24.104,174.754c0.01-0.563-0.231-1.439-1.228-1.439c-0.895,0-1.288,0.825-1.358,1.439
		H24.104z"/>
	<path fill="#B08C5A" d="M27.515,172.791l0.956,2.737c0.161,0.445,0.292,0.846,0.392,1.249h0.03c0.11-0.403,0.251-0.807,0.412-1.249
		l0.946-2.737h0.926l-1.911,4.872H28.42l-1.852-4.872H27.515z"/>
	<path fill="#B08C5A" d="M34.117,171.422c0.01,0.303-0.21,0.543-0.563,0.543c-0.312,0-0.533-0.241-0.533-0.543
		c0-0.312,0.231-0.554,0.553-0.554C33.906,170.868,34.117,171.111,34.117,171.422z M33.13,177.663v-4.872h0.886v4.872H33.13z"/>
	<path fill="#B08C5A" d="M36.944,172.791l0.956,2.737c0.161,0.445,0.292,0.846,0.393,1.249h0.031
		c0.11-0.403,0.251-0.807,0.412-1.249l0.946-2.737h0.926l-1.912,4.872H37.85l-1.852-4.872H36.944z"/>
	<path fill="#B08C5A" d="M43.545,171.422c0.01,0.303-0.211,0.543-0.563,0.543c-0.312,0-0.533-0.241-0.533-0.543
		c0-0.312,0.231-0.554,0.553-0.554C43.334,170.868,43.545,171.111,43.545,171.422z M42.559,177.663v-4.872h0.886v4.872H42.559z"/>
	<path fill="#B08C5A" d="M46.03,174.112c0-0.504-0.01-0.916-0.04-1.32h0.784l0.051,0.807h0.02c0.242-0.462,0.806-0.916,1.611-0.916
		c0.675,0,1.721,0.4,1.721,2.072v2.911h-0.886v-2.81c0-0.784-0.292-1.438-1.127-1.438c-0.584,0-1.036,0.412-1.188,0.905
		c-0.041,0.112-0.06,0.262-0.06,0.412v2.931h-0.886v-3.554H46.03z"/>
	<path fill="#B08C5A" d="M56.93,172.791c-0.021,0.353-0.04,0.744-0.04,1.339v2.829c0,1.116-0.221,1.8-0.695,2.224
		c-0.473,0.442-1.158,0.583-1.771,0.583c-0.583,0-1.228-0.141-1.621-0.402l0.222-0.674c0.322,0.201,0.825,0.383,1.429,0.383
		c0.906,0,1.569-0.476,1.569-1.7v-0.544h-0.02c-0.272,0.452-0.795,0.814-1.55,0.814c-1.209,0-2.073-1.028-2.073-2.377
		c0-1.649,1.077-2.585,2.194-2.585c0.845,0,1.308,0.443,1.52,0.846h0.02l0.041-0.735H56.93z M56.014,174.715
		c0-0.151-0.01-0.283-0.05-0.402c-0.161-0.514-0.594-0.937-1.237-0.937c-0.846,0-1.449,0.714-1.449,1.842
		c0,0.956,0.482,1.751,1.439,1.751c0.543,0,1.036-0.343,1.227-0.908c0.051-0.15,0.07-0.32,0.07-0.472V174.715z"/>
	<path fill="#B08C5A" d="M63.792,171.393v1.398h1.268v0.676h-1.268v2.627c0,0.604,0.171,0.946,0.664,0.946
		c0.231,0,0.403-0.028,0.514-0.061l0.04,0.665c-0.171,0.07-0.442,0.12-0.785,0.12c-0.413,0-0.745-0.131-0.956-0.373
		c-0.252-0.262-0.342-0.693-0.342-1.267v-2.658h-0.755v-0.676h0.755v-1.168L63.792,171.393z"/>
	<path fill="#B08C5A" d="M67.171,170.517h0.885v3.041h0.021c0.141-0.253,0.362-0.476,0.634-0.625
		c0.262-0.15,0.574-0.252,0.906-0.252c0.654,0,1.701,0.4,1.701,2.084v2.898h-0.886v-2.799c0-0.785-0.292-1.448-1.127-1.448
		c-0.573,0-1.026,0.4-1.187,0.886c-0.051,0.119-0.061,0.251-0.061,0.421v2.94h-0.885V170.517z"/>
	<path fill="#B08C5A" d="M74.367,175.389c0.02,1.197,0.787,1.689,1.672,1.689c0.634,0,1.016-0.109,1.35-0.25l0.15,0.633
		c-0.311,0.141-0.845,0.302-1.62,0.302c-1.499,0-2.396-0.985-2.396-2.454s0.865-2.628,2.283-2.628c1.59,0,2.013,1.398,2.013,2.296
		c0,0.181-0.02,0.321-0.03,0.412H74.367z M76.963,174.754c0.011-0.563-0.23-1.439-1.228-1.439c-0.895,0-1.288,0.825-1.358,1.439
		H76.963z"/>
	<path fill="#B08C5A" d="M85.979,177.663l-0.068-0.613h-0.031c-0.27,0.382-0.795,0.723-1.488,0.723c-0.988,0-1.49-0.694-1.49-1.399
		c0-1.178,1.047-1.821,2.93-1.811v-0.103c0-0.401-0.111-1.127-1.109-1.127c-0.449,0-0.924,0.142-1.268,0.363l-0.201-0.584
		c0.402-0.262,0.986-0.434,1.602-0.434c1.49,0,1.852,1.018,1.852,1.994v1.822c0,0.422,0.02,0.835,0.08,1.167L85.979,177.663
		L85.979,177.663z M85.848,175.177c-0.965-0.02-2.062,0.152-2.062,1.097c0,0.574,0.383,0.846,0.836,0.846
		c0.633,0,1.037-0.403,1.178-0.814c0.029-0.091,0.049-0.19,0.049-0.281V175.177z"/>
	<path fill="#B08C5A" d="M89.25,174.312c0-0.574-0.012-1.067-0.041-1.521h0.775l0.029,0.956h0.041
		c0.219-0.653,0.754-1.066,1.35-1.066c0.1,0,0.17,0.01,0.252,0.028v0.836c-0.092-0.021-0.184-0.029-0.303-0.029
		c-0.625,0-1.066,0.474-1.188,1.139c-0.023,0.119-0.041,0.261-0.041,0.412v2.597H89.25V174.312z"/>
	<path fill="#B08C5A" d="M96.305,177.663l-0.072-0.613h-0.027c-0.271,0.382-0.797,0.723-1.49,0.723c-0.986,0-1.49-0.694-1.49-1.399
		c0-1.178,1.049-1.821,2.93-1.811v-0.103c0-0.401-0.111-1.127-1.107-1.127c-0.451,0-0.926,0.142-1.268,0.363l-0.201-0.584
		c0.402-0.262,0.984-0.434,1.598-0.434c1.492,0,1.855,1.018,1.855,1.994v1.822c0,0.422,0.02,0.835,0.078,1.167L96.305,177.663
		L96.305,177.663z M96.174,175.177c-0.967-0.02-2.064,0.152-2.064,1.097c0,0.574,0.383,0.846,0.834,0.846
		c0.635,0,1.039-0.403,1.178-0.814c0.031-0.091,0.053-0.19,0.053-0.281V175.177z"/>
	<path fill="#B08C5A" d="M99.533,177.663c0.021-0.332,0.041-0.825,0.041-1.258v-5.89h0.875v3.06h0.02
		c0.312-0.544,0.875-0.896,1.662-0.896c1.207,0,2.062,1.006,2.053,2.487c0,1.742-1.094,2.606-2.184,2.606
		c-0.705,0-1.268-0.272-1.631-0.914h-0.031l-0.037,0.805H99.533z M100.449,175.711c0,0.11,0.021,0.221,0.041,0.321
		c0.172,0.614,0.686,1.036,1.328,1.036c0.926,0,1.48-0.753,1.48-1.872c0-0.976-0.504-1.812-1.449-1.812
		c-0.605,0-1.168,0.413-1.35,1.089c-0.021,0.1-0.051,0.219-0.051,0.361V175.711L100.449,175.711z"/>
	<path fill="#B08C5A" d="M113.141,177.482c-0.232,0.122-0.746,0.281-1.4,0.281c-1.471,0-2.428-0.995-2.428-2.485
		c0-1.5,1.027-2.587,2.619-2.587c0.523,0,0.986,0.131,1.229,0.251l-0.201,0.686c-0.213-0.12-0.543-0.232-1.027-0.232
		c-1.117,0-1.723,0.826-1.723,1.842c0,1.129,0.725,1.823,1.693,1.823c0.502,0,0.834-0.132,1.088-0.242L113.141,177.482z"/>
	<path fill="#B08C5A" d="M119.369,176.334c0,0.504,0.01,0.947,0.041,1.329h-0.787l-0.049-0.795h-0.02
		c-0.232,0.392-0.746,0.905-1.611,0.905c-0.766,0-1.68-0.422-1.68-2.134v-2.849h0.885v2.698c0,0.926,0.281,1.55,1.088,1.55
		c0.592,0,1.006-0.412,1.168-0.806c0.049-0.131,0.08-0.291,0.08-0.453v-2.989h0.885V176.334z"/>
	<path fill="#B08C5A" d="M121.955,170.517h0.883v7.148h-0.883V170.517z"/>
	<path fill="#B08C5A" d="M126.512,171.393v1.398h1.268v0.676h-1.268v2.627c0,0.604,0.172,0.946,0.666,0.946
		c0.23,0,0.4-0.028,0.514-0.061l0.039,0.665c-0.17,0.07-0.443,0.12-0.785,0.12c-0.412,0-0.744-0.131-0.955-0.373
		c-0.252-0.262-0.344-0.693-0.344-1.267v-2.658h-0.756v-0.676h0.756v-1.168L126.512,171.393z"/>
	<path fill="#B08C5A" d="M133.969,176.334c0,0.504,0.012,0.947,0.041,1.329h-0.785l-0.053-0.795h-0.018
		c-0.232,0.392-0.746,0.905-1.611,0.905c-0.766,0-1.68-0.422-1.68-2.134v-2.849h0.885v2.698c0,0.926,0.281,1.55,1.088,1.55
		c0.594,0,1.006-0.412,1.168-0.806c0.051-0.131,0.08-0.291,0.08-0.453v-2.989h0.885V176.334z"/>
	<path fill="#B08C5A" d="M136.555,174.312c0-0.574-0.01-1.067-0.041-1.521h0.775l0.029,0.956h0.041
		c0.221-0.653,0.754-1.066,1.35-1.066c0.1,0,0.17,0.01,0.252,0.028v0.836c-0.092-0.021-0.182-0.029-0.303-0.029
		c-0.625,0-1.066,0.474-1.188,1.139c-0.021,0.119-0.039,0.261-0.039,0.412v2.597h-0.877V174.312z"/>
	<path fill="#B08C5A" d="M141.354,175.389c0.021,1.197,0.787,1.689,1.672,1.689c0.635,0,1.02-0.109,1.35-0.25l0.15,0.633
		c-0.312,0.141-0.844,0.302-1.621,0.302c-1.5,0-2.395-0.985-2.395-2.454s0.863-2.628,2.283-2.628c1.592,0,2.014,1.398,2.014,2.296
		c0,0.181-0.02,0.321-0.029,0.412H141.354z M143.951,174.754c0.012-0.563-0.232-1.439-1.229-1.439c-0.895,0-1.287,0.825-1.359,1.439
		H143.951z"/>
</g>
</svg>
